# xmcd CD database file
#
# Track frame offsets:
#	150
#	32237
#	60762
#	128075
#	160600
#
# Disc length: 3813 seconds
#
# Revision: 0
# Processed by: cddbd v1.5.2PL0 Copyright (c) Steve Scherf et al.
# Submitted via: CDex 1.70beta2
#
DISCID=310ee305
DTITLE=Barbara A. Celkupa Herrick - Argonaut - Ancient Vision... Timeless Journey
DYEAR=2000
DGENRE=New Age
TTITLE0=Benediction of the Waves
TTITLE1=Rose Petal Afternoon
TTITLE2=Far Horizons
TTITLE3=Sundance
TTITLE4=Chant of the Tides
EXTD=YEAR: 2000
EXTT0=
EXTT1=
EXTT2=
EXTT3=
EXTT4=
PLAYORDER=
